<?xml version="1.0" standalone="no"?>
<!DOCTYPE svg PUBLIC "-//W3C//DTD SVG 20010904//EN"
 "http://www.w3.org/TR/2001/REC-SVG-20010904/DTD/svg10.dtd">
<svg version="1.0" xmlns="http://www.w3.org/2000/svg"
 width="960.000000pt" height="960.000000pt" viewBox="0 0 960.000000 960.000000"
 preserveAspectRatio="xMidYMid meet">
<metadata>
Created by potrace 1.11, written by Peter Selinger 2001-2013
</metadata>
<g transform="translate(0.000000,960.000000) scale(0.100000,-0.100000)"
fill="#000000" stroke="none">
<path d="M1800 8090 l0 -300 -300 0 -300 0 0 -300 0 -300 -300 0 -300 0 0
-300 0 -300 -300 0 -300 0 0 -300 0 -300 300 0 300 0 0 -300 0 -300 300 0 300
0 0 -300 0 -300 300 0 300 0 0 -300 0 -300 300 0 300 0 0 300 0 300 300 0 300
0 0 -300 0 -300 300 0 300 0 0 -1200 0 -1200 -300 0 -300 0 0 300 0 300 -600
0 -600 0 0 -300 0 -300 300 0 300 0 0 -295 0 -295 900 0 900 0 0 1795 0 1795
-300 0 -300 0 0 300 0 300 -300 0 -300 0 0 900 0 900 300 0 300 0 0 300 0 300
1200 0 1200 0 0 -300 0 -300 300 0 300 0 0 -900 0 -900 -300 0 -300 0 0 -300
0 -300 -300 0 -300 0 0 -1795 0 -1795 900 0 900 0 0 295 0 295 300 0 300 0 0
300 0 300 -600 0 -600 0 0 -300 0 -300 -300 0 -300 0 0 1200 0 1200 300 0 300
0 0 300 0 300 300 0 300 0 0 -300 0 -300 300 0 300 0 0 300 0 300 300 0 300 0
0 300 0 300 300 0 300 0 0 300 0 300 300 0 300 0 0 300 0 300 -300 0 -300 0 0
300 0 300 -300 0 -300 0 0 300 0 300 -300 0 -300 0 0 300 0 300 -300 0 -300 0
0 -300 0 -300 -300 0 -300 0 0 300 0 300 -1800 0 -1800 0 0 -300 0 -300 -300
0 -300 0 0 300 0 300 -300 0 -300 0 0 -300z m600 -1800 l0 -1500 -300 0 -300
0 0 300 0 300 -300 0 -300 0 0 300 0 300 -300 0 -300 0 0 300 0 300 300 0 300
0 0 300 0 300 300 0 300 0 0 300 0 300 300 0 300 0 0 -1500z m5400 1200 l0
-300 300 0 300 0 0 -300 0 -300 300 0 300 0 0 -300 0 -300 -300 0 -300 0 0
-300 0 -300 -300 0 -300 0 0 -300 0 -300 -300 0 -300 0 0 1500 0 1500 300 0
300 0 0 -300z"/>
<path d="M4200 6890 l0 -300 -300 0 -300 0 0 -300 0 -300 300 0 300 0 0 -300
0 -300 600 0 600 0 0 300 0 300 300 0 300 0 0 300 0 300 -300 0 -300 0 0 300
0 300 -600 0 -600 0 0 -300z"/>
</g>
</svg>
